<?xml version="1.0" encoding="UTF-8" standalone="no"?>
<!DOCTYPE svg PUBLIC "-//W3C//DTD SVG 1.1//EN" "http://www.w3.org/Graphics/SVG/1.1/DTD/svg11.dtd">
<svg width="100%" height="100%" viewBox="0 0 4360 2333" version="1.1" xmlns="http://www.w3.org/2000/svg" xmlns:xlink="http://www.w3.org/1999/xlink" xml:space="preserve" xmlns:serif="http://www.serif.com/" style="fill-rule:evenodd;clip-rule:evenodd;stroke-linejoin:round;stroke-miterlimit:2;">
    <g transform="matrix(1,0,0,1,101.519,-2145.81)">
        <g transform="matrix(0.49936,0,0,0.49936,-101.519,2145.62)">
            <g transform="matrix(4.16667,0,0,4.16667,0,0)">
                <path d="M126.085,62.543C126.085,97.017 98.106,124.995 63.632,124.995C29.158,124.995 1.18,97.017 1.18,62.543C1.18,28.069 29.158,0.09 63.632,0.09C98.106,0.09 126.085,28.069 126.085,62.543Z" style="fill:white;"/>
            </g>
            <g transform="matrix(4.16667,0,0,4.16667,0,0)">
                <path d="M932.853,62.673C932.853,97.147 904.874,125.125 870.4,125.125C835.927,125.125 807.948,97.147 807.948,62.673C807.948,28.2 835.927,0.221 870.4,0.221C904.874,0.221 932.853,28.2 932.853,62.673Z" style="fill:white;"/>
            </g>
            <g transform="matrix(4.16667,0,0,4.16667,0,0)">
                <path d="M278.413,62.673C278.413,97.147 250.434,125.125 215.96,125.125C181.487,125.125 153.508,97.147 153.508,62.673C153.508,28.2 181.487,0.221 215.96,0.221C250.434,0.221 278.413,28.2 278.413,62.673Z" style="fill:white;"/>
            </g>
            <g transform="matrix(4.16667,0,0,4.16667,0,0)">
                <path d="M502.453,62.673C502.453,97.147 474.474,125.125 440,125.125C405.527,125.125 377.548,97.147 377.548,62.673C377.548,28.2 405.527,0.221 440,0.221C474.474,0.221 502.453,28.2 502.453,62.673Z" style="fill:white;"/>
            </g>
            <g transform="matrix(4.16667,0,0,4.16667,0,0)">
                <path d="M654.373,62.673C654.373,97.147 626.395,125.125 591.92,125.125C557.447,125.125 529.468,97.147 529.468,62.673C529.468,28.2 557.447,0.221 591.92,0.221C626.395,0.221 654.373,28.2 654.373,62.673Z" style="fill:white;"/>
            </g>
            <g transform="matrix(4.16667,0,0,4.16667,0,0)">
                <path d="M278.413,209.913C278.413,244.387 250.434,272.365 215.96,272.365C181.487,272.365 153.508,244.387 153.508,209.913C153.508,175.439 181.487,147.46 215.96,147.46C250.434,147.46 278.413,175.439 278.413,209.913Z" style="fill:white;"/>
            </g>
            <g transform="matrix(4.16667,0,0,4.16667,0,0)">
                <path d="M821.494,209.913C821.494,244.387 793.515,272.365 759.041,272.365C724.566,272.365 696.587,244.387 696.587,209.913C696.587,175.439 724.566,147.46 759.041,147.46C793.515,147.46 821.494,175.439 821.494,209.913Z" style="fill:white;"/>
            </g>
            <g transform="matrix(4.16667,0,0,4.16667,0,0)">
                <path d="M821.494,357.033C821.494,391.506 793.515,419.485 759.041,419.485C724.566,419.485 696.587,391.506 696.587,357.033C696.587,322.56 724.566,294.581 759.041,294.581C793.515,294.581 821.494,322.56 821.494,357.033Z" style="fill:white;"/>
            </g>
            <g transform="matrix(4.16667,0,0,4.16667,0,0)">
                <path d="M152.307,463.312L152.307,980.231L343.844,980.231C655.381,980.231 669.227,463.312 343.844,463.312L152.307,463.312ZM79.615,1121C41.538,1121 0,1100.23 0,1049.46L0,394.082C0,352.543 41.538,322.543 79.615,322.543L343.844,322.543C871.148,322.543 859.61,1121 354.229,1121L79.615,1121Z" style="fill:white;fill-rule:nonzero;"/>
            </g>
            <g transform="matrix(4.16667,0,0,4.16667,0,0)">
                <path d="M787.434,720.479C787.434,505.468 922.233,320.537 1178.46,320.537C1275.38,320.537 1352.25,349.501 1433.58,419.687C1463.66,447.538 1467,496.556 1436.92,527.749C1406.84,554.486 1361.17,551.144 1334.43,524.406C1288.75,476.502 1241.96,463.134 1178.46,463.134C1006.9,463.134 924.461,584.565 924.461,720.479C924.461,858.62 1005.79,985.621 1178.46,985.621C1241.96,985.621 1301.01,959.998 1352.25,914.322C1386.79,887.585 1434.69,900.953 1454.75,927.69C1472.57,952.199 1481.48,993.419 1442.49,1032.41C1364.51,1104.82 1270.93,1119.31 1178.46,1119.31C908.865,1119.31 787.434,935.489 787.434,720.479Z" style="fill:white;fill-rule:nonzero;"/>
            </g>
            <g transform="matrix(4.16667,0,0,4.16667,0,0)">
                <path d="M1531.41,514.656C1555.96,307.569 1868.73,270.208 2016.04,383.358C2088.62,442.069 2011.77,534.938 1947.72,487.969C1868.73,437.799 1689.39,414.315 1666.98,525.331C1638.16,700.394 2102.5,600.053 2095.03,883.997C2087.56,1155.13 1694.73,1161.54 1547.42,1039.85C1512.2,1011.02 1513.26,964.057 1532.48,935.234C1560.23,907.481 1591.19,897.874 1627.48,927.763C1715.01,987.54 1940.25,1032.37 1956.26,880.794C1942.38,722.811 1498.32,817.814 1531.41,514.656Z" style="fill:white;fill-rule:nonzero;"/>
            </g>
        </g>
    </g>
</svg>
